<?xml version="1.0" encoding="utf-8"?>
<!-- Generator: Adobe Illustrator 23.0.6, SVG Export Plug-In . SVG Version: 6.00 Build 0)  -->
<svg version="1.1" id="Capa_1" xmlns="http://www.w3.org/2000/svg" xmlns:xlink="http://www.w3.org/1999/xlink" x="0px" y="0px"
	 viewBox="0 0 511 512" style="enable-background:new 0 0 511 512;" xml:space="preserve">
<style type="text/css">
	.st0{fill:#B11313;}
</style>
<path class="st0" d="M484.9,265.2c-0.7-15.7-7.2-29.9-17.1-39.8c9.4-9.2,14.4-21.6,13.8-36c-0.2-14.4-4.6-25.8-13.1-34.1
	c-3.3-3.2-7-5.7-10.8-7.6c6.6-8.7,10.1-19.3,10.1-30.5c0-15.3-5.8-29.2-16.3-39.3c-8.6-8.2-19.8-13.3-31.6-14.6
	c1.8-5.1,2.7-10.7,2.5-16.5c0-2.3-0.3-6.6-0.6-8.7c-1.5-9.2-5.3-16.6-11.4-22.4C398.8,4.8,384.8-1,370-1c0,0-41.1,0.1-54.3,0.1
	c-68.3,0-117.3,5.9-154.2,18.7c-7.8,2.7-14.6,5.8-20.7,8.5c-10.7,4.8-19.1,8.5-27.9,8.5H77.2C66.4,34.8,50.7,36,39.7,46
	C34,51,26.5,60.5,26.5,82.9v163.2c0,15,4.6,27.6,13.3,36.6c6.3,6.4,17.8,14.1,37.4,14.1c1,0,2,0,3.2,0c11.2-0.1,29.5-0.3,41.4,10
	c0.7,1.4,1.4,2.7,2.1,3.9c0.4,0.8,0.8,1.5,1.1,2.1c0.1,0.2,0.2,0.4,0.3,0.6c0.8,2,1.8,3.7,2.9,5.2c6.3,10.6,13.4,20.5,19.6,27.2
	c13.7,15,26.4,22.7,37.5,29.5c13.1,8,22.6,13.8,30.9,29.9l0.6,1.1c12.4,24.1,17.5,34.1,20.6,46c1.1,4.1,1.5,8.3,1.4,12.7
	c-0.1,2.3-0.4,10.6,2.7,19.7c5.1,14.9,16.8,24.5,32.3,26.2l0.8,0.1h0.8c16.9,0,31-4,42-11.9c16.4-11.7,24.7-30.8,24.7-56.7
	c0-46.1-11.3-83-21-106.3L437,321.6C464.7,320,486.1,294.9,484.9,265.2z"/>
</svg>
