<?xml version="1.0" encoding="utf-8"?>
<!-- Generator: Adobe Illustrator 23.0.6, SVG Export Plug-In . SVG Version: 6.00 Build 0)  -->
<svg version="1.1" id="Capa_1" xmlns="http://www.w3.org/2000/svg" xmlns:xlink="http://www.w3.org/1999/xlink" x="0px" y="0px"
	 viewBox="0 0 511 512" style="enable-background:new 0 0 511 512;" xml:space="preserve">
<style type="text/css">
	.st0{fill:#70964B;}
</style>
<path class="st0" d="M26.6,244.9c0.7,15.7,7.2,29.9,17.1,39.8c-9.4,9.2-14.3,21.7-13.8,36c0.2,14.4,4.6,25.8,13.1,34.1
	c3.2,3.2,6.9,5.7,10.8,7.6c-6.5,8.7-10.1,19.3-10.1,30.5c0,15.3,5.8,29.3,16.3,39.3c8.5,8.1,19.7,13.3,31.6,14.6
	c-1.9,5.1-2.7,10.6-2.5,16.5c0,2.4,0.3,6.7,0.6,8.7c1.6,9.3,5.3,16.6,11.4,22.4c11.5,11,25.5,16.8,40.3,16.8
	c0.1,0,41.2-0.1,54.4-0.1c68.3,0,117.3-5.9,154.1-18.7c7.8-2.8,14.7-5.8,20.7-8.5c10.7-4.7,19.1-8.5,27.9-8.5h35.7
	c10.8,0,26.5-1.2,37.5-11.2c11.8-10.7,13.2-26.2,13.2-37V264c0-15-4.6-27.7-13.3-36.6c-6.3-6.4-17.8-14.1-37.4-14.1
	c-1,0-2.1,0-3.2,0c-11.2,0.1-29.5,0.3-41.4-10c-0.8-1.4-1.5-2.7-2.1-3.9c-0.4-0.9-0.8-1.6-1.1-2.1c-0.1-0.2-0.2-0.4-0.3-0.6
	c-0.8-1.9-1.8-3.7-2.9-5.2c-6.3-10.6-13.4-20.4-19.6-27.2c-13.6-14.9-26.3-22.7-37.5-29.5c-13.2-8-22.6-13.8-30.9-29.9l-0.6-1.1
	c-12.4-24.2-17.5-34.1-20.6-46.1c-1.1-4.1-1.5-8.3-1.4-12.7c1.1-16.9-7.3-42.8-35-45.9L236.8-1H236c-16.9,0-31,4-41.9,11.9
	c-16.4,11.8-24.7,30.8-24.7,56.7c0,46.1,11.3,83,21,106.3L74.5,188.4C46.7,190,25.3,215.1,26.6,244.9z"/>
</svg>
